<svg width="451" height="454" viewBox="0 0 451 454" fill="none" xmlns="http://www.w3.org/2000/svg">
<mask id="mask0_369_6873" style="mask-type:luminance" maskUnits="userSpaceOnUse" x="0" y="0" width="451" height="454">
<path d="M0 453.52H450.667V0.000915527H0V453.52Z" fill="white"/>
</mask>
<g mask="url(#mask0_369_6873)">
<path d="M25.3333 0.000854492C11.3427 0.000854492 0 11.3435 0 25.3342V428.186C0 442.178 11.3427 453.52 25.3333 453.52H425.333C439.324 453.52 450.667 442.178 450.667 428.186V25.3342C450.667 11.3435 439.324 0.000854492 425.333 0.000854492H25.3333Z" fill="#414042"/>
<path d="M128.71 190.208V161.64H137.952V152.188H128.71V135.383H114.74V152.188H107.284V161.64H114.74V193.253C114.74 203.441 122.408 206.172 129.34 206.172C135.011 206.172 138.267 205.963 138.267 205.963V195.46C138.267 195.46 135.852 195.564 134.066 195.564C130.915 195.564 128.71 194.199 128.71 190.208Z" fill="white"/>
<path d="M171.769 176.448C170.089 181.384 168.619 188.212 168.619 188.212H168.408C168.408 188.212 166.623 181.384 164.943 176.448L156.96 152.187H141.941L156.435 190.522C159.481 198.715 160.531 202.18 160.531 205.122C160.531 209.532 158.22 212.474 152.549 212.474H147.508V223.711H155.911C166.833 223.711 170.824 219.406 174.92 207.432L193.72 152.187H179.332L171.769 176.448Z" fill="white"/>
</g>
<path d="M198.761 206.066H213.045V130.97H198.761V206.066Z" fill="white"/>
<mask id="mask1_369_6873" style="mask-type:luminance" maskUnits="userSpaceOnUse" x="0" y="0" width="451" height="454">
<path d="M0 453.52H450.667V0.000915527H0V453.52Z" fill="white"/>
</mask>
<g mask="url(#mask1_369_6873)">
<path d="M74.9336 160.8C63.8002 158.384 58.5482 156.599 58.5482 150.507C58.5482 145.151 63.9056 141.684 72.0975 141.684C79.8695 141.684 85.7509 145.465 86.5922 153.028H101.191C100.035 137.904 89.1122 129.607 72.2029 129.607C55.5029 129.607 43.4242 137.273 43.4242 152.083C43.4242 167.732 55.7136 171.303 69.1576 174.349C80.6055 176.975 87.7469 178.445 87.7469 185.797C87.7469 192.729 80.9202 195.46 73.1482 195.46C62.4349 195.46 57.2882 191.888 56.2389 182.856H41.3242C41.8496 198.716 53.4029 207.748 73.7775 207.748C90.6882 207.748 102.976 199.241 102.976 184.012C102.976 167.837 90.3722 164.161 74.9336 160.8Z" fill="white"/>
<path d="M247.87 196.615C239.783 196.615 235.162 191.468 234.111 183.171H273.182C273.182 163.951 263.939 150.717 246.61 150.717C230.855 150.717 220.036 163.111 220.036 179.075C220.036 195.144 230.119 207.643 247.975 207.643C261.839 207.643 270.346 199.556 272.342 189.997H258.267C256.692 194.093 253.436 196.615 247.87 196.615ZM246.819 161.745C246.982 161.745 247.138 161.761 247.298 161.767C253.548 161.995 257.858 166.641 258.267 173.299H235.371H234.32C235.582 166.261 239.258 161.745 246.819 161.745Z" fill="white"/>
<path d="M197.921 250.92C190.569 250.92 185.527 254.387 182.062 259.112H181.746V252.391H167.987V323.916H182.271V300.179H182.482C185.527 304.8 190.463 307.845 198.026 307.845C211.89 307.845 221.342 296.817 221.342 279.383C221.342 262.579 212.205 250.92 197.921 250.92ZM194.979 295.977C186.473 295.977 181.957 289.571 181.957 279.803C181.957 270.14 185.527 262.473 194.455 262.473C203.277 262.473 206.849 269.615 206.849 279.803C206.849 289.991 202.227 295.977 194.979 295.977Z" fill="white"/>
<path d="M77.4542 295.347C64.8502 295.347 56.8688 284.319 56.8688 268.984C56.8688 254.071 63.4848 242.518 77.3488 242.518C86.1715 242.518 91.8435 247.454 93.2088 255.016H108.333C106.757 240.732 95.8342 229.704 77.3488 229.704C55.1875 229.704 41.3235 246.719 41.3235 268.984C41.3235 291.566 56.3435 307.846 77.4542 307.846C87.8515 307.846 95.0995 304.695 100.246 299.863C105.287 295.136 108.123 288.73 108.543 282.114H93.6288C92.6835 289.991 86.3822 295.347 77.4542 295.347Z" fill="white"/>
<path d="M384.031 296.818C375.944 296.818 371.323 291.671 370.272 283.374H409.343C409.343 264.154 400.1 250.92 382.771 250.92C367.016 250.92 356.197 263.314 356.197 279.278C356.197 295.347 366.281 307.846 384.136 307.846C398 307.846 406.507 299.759 408.503 290.2H394.428C392.853 294.296 389.597 296.818 384.031 296.818ZM382.98 261.948C383.143 261.948 383.299 261.964 383.459 261.97C389.709 262.198 394.019 266.844 394.428 273.502H371.532H370.481C371.743 266.464 375.419 261.948 382.98 261.948Z" fill="white"/>
<path d="M161.056 298.289V270.875C161.056 258.273 154.544 251.026 138.37 251.026C122.616 251.026 115.579 259.323 115.159 268.775H127.867C128.287 263.629 131.543 261.214 138.264 261.214C144.251 261.214 147.298 263.734 147.298 267.621C147.298 271.717 143.202 272.451 134.274 273.711C122.3 275.393 112.638 279.174 112.638 291.042C112.638 301.754 120.41 307.531 131.438 307.531C140.68 307.531 144.567 304.381 147.298 300.285H147.508C147.823 302.699 148.348 305.221 149.188 306.271H162.947V305.746C161.687 304.801 161.056 302.385 161.056 298.289ZM147.612 287.261C147.612 292.513 143.096 297.554 134.904 297.554C129.863 297.554 126.502 295.767 126.502 290.726C126.502 285.685 130.178 284.005 137.635 282.325C141.206 281.483 145.092 280.643 147.612 279.174V287.261Z" fill="white"/>
</g>
<path d="M335.32 306.27H349.604V231.174H335.32V306.27Z" fill="white"/>
<mask id="mask2_369_6873" style="mask-type:luminance" maskUnits="userSpaceOnUse" x="0" y="0" width="451" height="454">
<path d="M0 453.52H450.667V0.000915527H0V453.52Z" fill="white"/>
</mask>
<g mask="url(#mask2_369_6873)">
<path d="M327.849 306.27V252.39H313.565V283.478C313.565 290.62 309.469 295.662 302.746 295.662C296.655 295.662 293.819 292.196 293.819 285.894V252.39H279.641V288.31C279.641 300.072 286.362 307.74 298.335 307.74C305.898 307.74 310.098 304.904 313.775 299.968H314.09V306.27H327.849Z" fill="white"/>
<path d="M251.435 307.846C264.879 307.846 274.122 301.334 274.122 290.516C274.122 277.912 264.143 275.391 255.111 273.502C247.444 271.926 240.302 271.506 240.302 266.884C240.302 262.998 243.978 260.898 249.544 260.898C255.636 260.898 259.312 262.998 259.943 268.775H272.86C271.811 257.956 263.934 250.92 249.755 250.92C237.466 250.92 227.803 256.486 227.803 268.144C227.803 279.908 237.256 282.534 246.919 284.424C254.271 285.895 261.098 286.42 261.098 291.566C261.098 295.347 257.527 297.763 251.224 297.763C244.818 297.763 240.407 295.032 239.462 288.835H226.228C227.068 300.283 235.786 307.846 251.435 307.846Z" fill="white"/>
</g>
</svg>
